<svg xmlns="http://www.w3.org/2000/svg" viewBox="0 0 512 512">
  <defs>
    <linearGradient id="grad" x1="0%" y1="0%" x2="100%" y2="100%">
      <stop offset="0%" style="stop-color:#3b82f6;stop-opacity:1" />
      <stop offset="100%" style="stop-color:#8b5cf6;stop-opacity:1" />
    </linearGradient>
  </defs>
  <rect width="512" height="512" rx="128" fill="#0f172a" />
  <path d="M160 128 h192 a32 32 0 0 1 32 32 v32 a32 32 0 0 1 -32 32 h-128 v64 h96 a32 32 0 0 1 32 32 v32 a32 32 0 0 1 -32 32 h-96 v64 a32 32 0 0 1 -64 0 v-256 a32 32 0 0 1 32 -32 z" fill="url(#grad)" />
</svg>
